<svg width="610" height="204" viewBox="0 0 610 204" fill="none" xmlns="http://www.w3.org/2000/svg">
<rect width="610" height="203.333" fill="white"/>
<g clip-path="url(#clip0_307_543)">
<path d="M246.914 167.852C246.918 167.974 246.895 168.096 246.848 168.209C246.8 168.321 246.728 168.422 246.637 168.504C246.552 168.59 246.45 168.658 246.338 168.703C246.226 168.749 246.105 168.771 245.984 168.77H244.004C243.789 168.801 243.57 168.769 243.373 168.677C243.176 168.584 243.011 168.436 242.898 168.25L232.942 149.323C232.92 149.294 232.894 149.268 232.865 149.246C232.865 149.246 232.81 149.246 232.81 149.323V168.128C232.816 168.208 232.804 168.288 232.775 168.363C232.746 168.437 232.702 168.505 232.644 168.56C232.596 168.622 232.533 168.671 232.462 168.704C232.391 168.737 232.313 168.752 232.234 168.748H230.564C230.155 168.748 229.978 168.615 229.978 168.35V145.728C229.975 145.607 229.996 145.487 230.042 145.374C230.087 145.262 230.154 145.161 230.241 145.076C230.327 144.991 230.429 144.924 230.542 144.88C230.655 144.836 230.775 144.816 230.896 144.821H232.666C232.971 144.797 233.277 144.842 233.562 144.954C233.759 145.073 233.913 145.251 234.004 145.462L243.96 164.268V164.356C243.96 164.356 243.96 164.356 243.96 164.268V145.429C243.957 145.349 243.971 145.269 244.002 145.194C244.033 145.12 244.079 145.053 244.137 144.998C244.189 144.938 244.253 144.89 244.326 144.86C244.399 144.829 244.478 144.816 244.557 144.821H246.372C246.453 144.818 246.534 144.831 246.61 144.859C246.686 144.888 246.755 144.931 246.814 144.987C246.901 145.118 246.947 145.272 246.947 145.429L246.914 167.852Z" fill="#231F20"/>
<path d="M258.263 172.796C259.088 172.83 259.911 172.717 260.697 172.465C261.264 172.248 261.724 171.82 261.98 171.27C262.253 170.466 262.377 169.619 262.345 168.77V168.549C261.947 168.648 261.361 168.748 260.597 168.858C259.98 168.931 259.36 168.971 258.739 168.98C253.938 168.98 251.538 166.344 251.538 161.071V158.704C251.492 157.19 251.759 155.684 252.323 154.279C252.804 153.168 253.646 152.252 254.712 151.679C255.964 151.066 257.346 150.77 258.739 150.816C260.686 150.85 262.623 151.102 264.513 151.569C264.711 151.576 264.9 151.654 265.044 151.79C265.102 151.863 265.144 151.946 265.168 152.035C265.193 152.125 265.2 152.218 265.188 152.31V168.781C265.188 171.082 264.613 172.73 263.44 173.681C261.933 174.746 260.103 175.254 258.263 175.119C257.204 175.128 256.148 174.998 255.122 174.732C254.353 174.546 253.611 174.267 252.909 173.903C252.773 173.835 252.658 173.731 252.576 173.602C252.494 173.473 252.449 173.325 252.445 173.173V172.066C252.442 171.984 252.46 171.903 252.497 171.83C252.534 171.756 252.588 171.693 252.655 171.646C252.736 171.596 252.83 171.57 252.926 171.57C253.021 171.57 253.115 171.596 253.197 171.646C254.303 172.055 255.144 172.365 255.752 172.52C256.559 172.715 257.389 172.801 258.219 172.774M262.301 166.226V153.549C261.111 153.332 259.904 153.217 258.695 153.206C258.004 153.184 257.315 153.285 256.659 153.504C256.123 153.695 255.652 154.032 255.299 154.478C254.939 154.985 254.69 155.561 254.569 156.17C254.406 157.005 254.329 157.853 254.336 158.704V161.071C254.291 162.198 254.456 163.323 254.823 164.389C255.082 165.117 255.587 165.731 256.25 166.126C257.006 166.51 257.847 166.696 258.695 166.668C259.308 166.665 259.921 166.628 260.531 166.558C261.126 166.51 261.717 166.425 262.301 166.303" fill="#231F20"/>
<path d="M283.639 168.128C283.636 168.212 283.616 168.295 283.58 168.371C283.544 168.447 283.492 168.515 283.429 168.571C283.372 168.634 283.302 168.684 283.224 168.719C283.145 168.753 283.061 168.77 282.976 168.77H281.438C281.352 168.773 281.267 168.756 281.189 168.722C281.11 168.687 281.04 168.636 280.984 168.571C280.923 168.515 280.873 168.446 280.839 168.37C280.805 168.294 280.786 168.212 280.785 168.128V157.509C280.908 156.333 280.597 155.153 279.911 154.19C279.568 153.864 279.161 153.612 278.715 153.45C278.27 153.288 277.796 153.22 277.323 153.25C276.58 153.265 275.84 153.343 275.111 153.482C274.348 153.607 273.604 153.83 272.898 154.146V168.084C272.898 168.166 272.881 168.247 272.846 168.322C272.812 168.396 272.762 168.462 272.699 168.515C272.645 168.584 272.576 168.638 272.497 168.675C272.419 168.711 272.332 168.729 272.246 168.726H270.708C270.627 168.728 270.547 168.712 270.474 168.677C270.401 168.642 270.337 168.591 270.288 168.527C270.223 168.472 270.17 168.405 270.134 168.328C270.098 168.252 270.078 168.169 270.077 168.084V145.142C270.076 145.056 270.093 144.971 270.128 144.893C270.162 144.815 270.213 144.745 270.276 144.688C270.329 144.626 270.395 144.576 270.47 144.544C270.545 144.511 270.626 144.496 270.708 144.5H272.301C272.387 144.497 272.473 144.513 272.553 144.545C272.633 144.577 272.705 144.626 272.765 144.688C272.868 144.817 272.923 144.977 272.92 145.142V151.779C273.712 151.436 274.539 151.184 275.387 151.027C276.203 150.864 277.033 150.778 277.865 150.772C278.923 150.746 279.969 150.99 280.907 151.48C281.819 151.966 282.54 152.745 282.954 153.692C283.467 154.882 283.716 156.169 283.684 157.465L283.639 168.128Z" fill="#231F20"/>
<path d="M296.526 145.518C296.596 146.426 296.337 147.329 295.796 148.062C295.497 148.365 295.135 148.599 294.735 148.746C294.336 148.893 293.909 148.95 293.484 148.914C292.735 148.928 292.004 148.681 291.416 148.217L289.447 146.668C289.208 146.445 288.949 146.245 288.672 146.071C288.502 145.982 288.312 145.936 288.119 145.938C287.968 145.923 287.815 145.949 287.677 146.013C287.539 146.077 287.42 146.178 287.334 146.303C287.172 146.648 287.096 147.028 287.113 147.409V148.095C287.117 148.168 287.106 148.24 287.081 148.309C287.057 148.377 287.018 148.44 286.969 148.493C286.862 148.595 286.719 148.651 286.571 148.648H285.575C285.504 148.652 285.433 148.639 285.367 148.61C285.302 148.581 285.244 148.538 285.199 148.482C285.148 148.432 285.108 148.372 285.081 148.305C285.054 148.238 285.042 148.167 285.044 148.095V147.409C284.983 146.474 285.266 145.55 285.841 144.81C286.132 144.503 286.487 144.263 286.881 144.106C287.274 143.95 287.697 143.88 288.119 143.903C288.833 143.937 289.515 144.21 290.055 144.677L292.334 146.469C292.528 146.604 292.736 146.719 292.953 146.812C293.122 146.881 293.302 146.919 293.484 146.923C293.621 146.935 293.758 146.913 293.883 146.859C294.009 146.805 294.119 146.72 294.203 146.613C294.392 146.276 294.477 145.891 294.447 145.507V144.765C294.446 144.694 294.459 144.623 294.486 144.556C294.512 144.49 294.552 144.429 294.602 144.378C294.706 144.278 294.845 144.223 294.989 144.223H296.007C296.075 144.226 296.142 144.243 296.203 144.273C296.264 144.304 296.318 144.347 296.361 144.4C296.46 144.497 296.519 144.627 296.526 144.765V145.518ZM291.582 168.128C291.582 168.213 291.566 168.296 291.534 168.374C291.501 168.452 291.454 168.523 291.394 168.582C291.335 168.645 291.262 168.694 291.182 168.727C291.102 168.759 291.016 168.774 290.929 168.77H289.38C289.217 168.751 289.064 168.677 288.948 168.561C288.831 168.444 288.758 168.292 288.739 168.128V151.679C288.741 151.595 288.76 151.512 288.797 151.435C288.833 151.359 288.885 151.291 288.949 151.237C289.004 151.177 289.07 151.129 289.145 151.097C289.219 151.064 289.299 151.048 289.38 151.049H290.929C291.106 151.046 291.278 151.105 291.416 151.215C291.529 151.342 291.588 151.509 291.582 151.679V168.128Z" fill="#231F20"/>
<path d="M306.018 168.128V152.642C305.995 152.463 306.042 152.283 306.15 152.139C306.257 151.995 306.416 151.897 306.593 151.867C307.796 151.55 309.014 151.295 310.243 151.104C311.175 150.947 312.119 150.865 313.064 150.861C313.793 150.856 314.517 150.968 315.21 151.192C315.818 151.35 316.368 151.681 316.792 152.144C318.462 151.316 320.294 150.867 322.157 150.827C323.091 150.81 324.017 151.003 324.867 151.392C325.666 151.815 326.309 152.481 326.704 153.294C327.192 154.385 327.419 155.574 327.367 156.768V168.184C327.37 168.267 327.356 168.351 327.325 168.429C327.295 168.506 327.249 168.577 327.19 168.637C327.133 168.699 327.062 168.748 326.984 168.781C326.906 168.813 326.821 168.829 326.737 168.825H325.188C325.101 168.825 325.015 168.808 324.935 168.773C324.855 168.739 324.783 168.689 324.723 168.626C324.662 168.571 324.615 168.502 324.586 168.425C324.557 168.348 324.547 168.265 324.557 168.184V156.712C324.617 156.232 324.582 155.744 324.452 155.277C324.323 154.81 324.103 154.373 323.805 153.991C323.519 153.727 323.182 153.523 322.816 153.392C322.449 153.261 322.059 153.205 321.67 153.228C320.364 153.278 319.078 153.567 317.876 154.08C318.071 154.906 318.164 155.753 318.153 156.602V168.084C318.158 168.163 318.148 168.242 318.121 168.316C318.094 168.391 318.052 168.458 317.998 168.515C317.95 168.582 317.886 168.635 317.813 168.672C317.74 168.709 317.659 168.727 317.577 168.726H315.852C315.776 168.728 315.7 168.71 315.633 168.676C315.565 168.641 315.507 168.59 315.465 168.527C315.37 168.399 315.319 168.243 315.321 168.084V156.646C315.345 155.935 315.251 155.225 315.044 154.544C314.922 154.117 314.636 153.755 314.248 153.538C313.804 153.336 313.318 153.245 312.832 153.272C311.505 153.282 310.185 153.464 308.905 153.814V168.128C308.904 168.294 308.846 168.455 308.739 168.582C308.69 168.645 308.626 168.696 308.552 168.729C308.479 168.762 308.399 168.776 308.319 168.77H306.582C306.51 168.768 306.439 168.749 306.375 168.715C306.312 168.68 306.257 168.631 306.217 168.571C306.114 168.447 306.059 168.29 306.062 168.128" fill="#231F20"/>
<path d="M345.929 156.723C346.048 157.365 346.104 158.018 346.095 158.67V161.137C346.211 163.214 345.552 165.259 344.248 166.878C342.803 168.229 340.899 168.981 338.921 168.981C336.944 168.981 335.04 168.229 333.595 166.878C332.29 165.259 331.632 163.214 331.748 161.137V158.67C331.632 156.594 332.29 154.549 333.595 152.929C334.271 152.202 335.1 151.634 336.022 151.267C336.944 150.899 337.936 150.742 338.927 150.805C339.915 150.744 340.905 150.901 341.826 151.264C342.748 151.627 343.578 152.188 344.259 152.907C344.599 153.33 344.902 153.782 345.166 154.257C345.436 153.95 345.592 153.559 345.608 153.15V151.48C345.608 151.259 345.785 151.115 346.15 151.104H347.456C347.555 151.091 347.656 151.117 347.736 151.177C347.817 151.237 347.871 151.326 347.887 151.425C348.142 154.08 347.511 155.85 345.929 156.768M343.263 161.192V158.726C343.286 157.747 343.128 156.772 342.799 155.85C342.523 155.102 342.025 154.458 341.372 154.002C340.643 153.539 339.79 153.312 338.927 153.35C338.301 153.293 337.671 153.392 337.092 153.637C336.513 153.882 336.004 154.266 335.608 154.754C334.815 155.922 334.427 157.317 334.502 158.726V161.192C334.502 164.777 335.94 166.569 338.838 166.569C339.453 166.614 340.069 166.511 340.635 166.269C341.201 166.026 341.7 165.651 342.091 165.175C342.894 164.008 343.283 162.606 343.197 161.192M343.816 143.947C343.811 143.994 343.795 144.039 343.77 144.079C343.746 144.119 343.712 144.153 343.673 144.179L340.033 148.25C339.845 148.471 339.712 148.582 339.657 148.659C339.553 148.72 339.434 148.75 339.314 148.748H337.544C337.356 148.748 337.257 148.659 337.257 148.515C337.256 148.392 337.304 148.273 337.389 148.184L340.553 144.179C340.719 143.98 340.863 143.847 340.918 143.781C341.05 143.736 341.188 143.714 341.327 143.715H343.44C343.695 143.715 343.816 143.781 343.816 143.947Z" fill="#231F20"/>
<path d="M353.673 147.553C353.679 147.636 353.668 147.72 353.64 147.798C353.611 147.876 353.566 147.948 353.507 148.007C353.378 148.121 353.214 148.188 353.042 148.195H351.35C351.265 148.197 351.181 148.181 351.103 148.148C351.025 148.116 350.954 148.068 350.896 148.007C350.834 147.949 350.786 147.878 350.753 147.8C350.721 147.722 350.705 147.638 350.708 147.553V144.987C350.705 144.815 350.768 144.648 350.885 144.522C351.012 144.406 351.178 144.343 351.35 144.345H352.998C353.083 144.339 353.169 144.351 353.25 144.382C353.33 144.413 353.403 144.46 353.462 144.522C353.523 144.582 353.569 144.655 353.598 144.736C353.626 144.816 353.637 144.902 353.628 144.987L353.673 147.553ZM353.673 168.128C353.671 168.213 353.653 168.297 353.619 168.375C353.584 168.453 353.535 168.523 353.473 168.582C353.416 168.644 353.346 168.693 353.267 168.726C353.189 168.758 353.105 168.773 353.02 168.77H351.46C351.381 168.77 351.303 168.752 351.233 168.718C351.162 168.683 351.1 168.633 351.051 168.571C350.981 168.521 350.924 168.455 350.888 168.377C350.851 168.3 350.835 168.214 350.841 168.128V151.679C350.836 151.597 350.85 151.515 350.88 151.438C350.911 151.362 350.958 151.293 351.018 151.237C351.074 151.176 351.143 151.129 351.219 151.096C351.295 151.064 351.377 151.048 351.46 151.049H353.02C353.196 151.046 353.368 151.105 353.507 151.215C353.61 151.348 353.669 151.511 353.673 151.679V168.128Z" fill="#231F20"/>
<path d="M362.522 164.965C362.512 165.056 362.49 165.145 362.456 165.23L360.044 171.325C359.981 171.488 359.896 171.64 359.79 171.779C359.746 171.83 359.692 171.87 359.631 171.897C359.569 171.924 359.503 171.936 359.436 171.934H357.832C357.589 171.934 357.467 171.801 357.467 171.535C357.45 171.466 357.45 171.394 357.467 171.325L359.314 165.23C359.436 164.81 359.646 164.6 359.956 164.6H362.08C362.345 164.6 362.489 164.732 362.489 164.965" fill="#231F20"/>
<path d="M378.938 168.128C378.94 168.291 378.889 168.45 378.794 168.582C378.739 168.647 378.669 168.698 378.59 168.73C378.511 168.763 378.426 168.776 378.341 168.77H376.692C376.613 168.774 376.533 168.759 376.46 168.726C376.387 168.693 376.322 168.644 376.272 168.582C376.161 168.457 376.101 168.295 376.106 168.128V145.142C376.101 144.987 376.157 144.836 376.261 144.721C376.314 144.658 376.38 144.607 376.454 144.573C376.529 144.539 376.61 144.521 376.692 144.522H378.341C378.424 144.519 378.508 144.533 378.586 144.563C378.664 144.594 378.735 144.64 378.794 144.699C378.889 144.827 378.94 144.982 378.938 145.142V168.128Z" fill="#231F20"/>
<path d="M396.538 167.542C396.556 167.699 396.517 167.857 396.427 167.987C396.338 168.118 396.204 168.211 396.051 168.25C395.212 168.486 394.358 168.667 393.496 168.792C392.532 168.928 391.559 168.991 390.586 168.98C388.086 168.98 386.261 168.56 385.177 167.719C384.602 167.222 384.153 166.596 383.867 165.893C383.58 165.189 383.464 164.427 383.529 163.67V163.383C383.491 162.345 383.756 161.319 384.292 160.429C384.891 159.592 385.763 158.989 386.759 158.726C388.232 158.302 389.762 158.112 391.294 158.161H393.706V156.867C393.82 155.871 393.538 154.87 392.92 154.08C392.168 153.481 391.211 153.199 390.254 153.294C389.402 153.288 388.551 153.355 387.71 153.493C386.896 153.652 386.091 153.855 385.299 154.102C385.214 154.144 385.122 154.165 385.028 154.165C384.934 154.165 384.841 154.144 384.757 154.102C384.689 154.061 384.635 154.002 384.6 153.931C384.565 153.861 384.55 153.782 384.558 153.704V152.454C384.562 152.322 384.607 152.196 384.687 152.091C384.766 151.986 384.875 151.908 385 151.867C385.718 151.584 386.458 151.358 387.212 151.192C388.208 150.946 389.229 150.823 390.254 150.827C394.425 150.827 396.538 152.852 396.538 156.889V167.542ZM392.389 148.46C392.389 148.604 392.301 148.681 392.102 148.681H390.398C390.315 148.706 390.227 148.706 390.144 148.681C390.06 148.656 389.984 148.611 389.923 148.549C389.825 148.461 389.74 148.36 389.668 148.25L386.018 144.19C385.945 144.128 385.898 144.042 385.885 143.947C385.885 143.781 386.018 143.715 386.25 143.715H388.363C388.524 143.73 388.68 143.78 388.819 143.863C388.959 143.945 389.079 144.057 389.17 144.19L392.301 148.184C392.347 148.225 392.384 148.276 392.407 148.334C392.43 148.391 392.439 148.454 392.434 148.515M393.706 166.546V160.263H391.283C390.469 160.248 389.654 160.304 388.85 160.429C388.329 160.508 387.832 160.697 387.389 160.982C387.04 161.212 386.769 161.544 386.615 161.934C386.449 162.402 386.37 162.897 386.383 163.394V163.681C386.35 164.307 386.476 164.931 386.748 165.496C386.88 165.739 387.06 165.953 387.277 166.126C387.493 166.299 387.742 166.427 388.009 166.502C388.843 166.739 389.709 166.843 390.575 166.812C390.996 166.812 391.438 166.812 391.825 166.812C392.212 166.812 392.588 166.746 392.931 166.701L393.717 166.569" fill="#231F20"/>
<path d="M401.383 168.128V152.642C401.363 152.462 401.413 152.282 401.522 152.138C401.631 151.994 401.791 151.897 401.969 151.867C403.164 151.55 404.375 151.295 405.597 151.104C406.537 150.946 407.488 150.865 408.44 150.861C409.162 150.855 409.879 150.967 410.564 151.192C411.177 151.353 411.733 151.683 412.168 152.144C413.832 151.32 415.655 150.871 417.511 150.827C418.442 150.809 419.365 151.002 420.21 151.392C421.024 151.798 421.675 152.469 422.058 153.294C422.56 154.381 422.795 155.572 422.743 156.768V168.184C422.745 168.269 422.727 168.354 422.693 168.432C422.659 168.51 422.608 168.58 422.544 168.637C422.486 168.699 422.416 168.748 422.338 168.78C422.26 168.812 422.175 168.828 422.091 168.825H420.542C420.458 168.826 420.376 168.808 420.299 168.774C420.223 168.739 420.155 168.689 420.1 168.626C420.036 168.572 419.985 168.504 419.953 168.427C419.92 168.35 419.906 168.267 419.912 168.184V156.712C420.008 155.75 419.722 154.789 419.115 154.035C418.828 153.769 418.49 153.563 418.121 153.432C417.752 153.301 417.36 153.247 416.969 153.272C415.667 153.327 414.386 153.616 413.186 154.124C413.396 154.948 413.493 155.796 413.473 156.646V168.128C413.479 168.285 413.428 168.438 413.33 168.56C413.279 168.628 413.212 168.684 413.135 168.72C413.058 168.757 412.973 168.774 412.887 168.77H411.195C411.118 168.773 411.043 168.756 410.975 168.721C410.907 168.686 410.849 168.635 410.808 168.571C410.697 168.45 410.637 168.292 410.642 168.128V156.646C410.674 155.935 410.584 155.224 410.376 154.544C410.255 154.116 409.974 153.752 409.591 153.527C409.143 153.339 408.66 153.252 408.175 153.272C406.841 153.282 405.513 153.464 404.226 153.814V168.128C404.233 168.294 404.178 168.456 404.071 168.582C404.02 168.646 403.954 168.697 403.879 168.73C403.803 168.763 403.721 168.777 403.639 168.77H401.936C401.861 168.773 401.787 168.756 401.721 168.721C401.655 168.686 401.599 168.634 401.56 168.571C401.449 168.45 401.39 168.292 401.394 168.128" fill="#231F20"/>
<path d="M436.881 168.128V152.642C436.855 152.466 436.898 152.287 437.001 152.143C437.104 151.998 437.259 151.9 437.434 151.867C438.633 151.551 439.848 151.296 441.073 151.104C442.016 150.947 442.971 150.866 443.927 150.861C444.648 150.853 445.366 150.965 446.051 151.192C446.659 151.358 447.21 151.687 447.644 152.144C449.306 151.316 451.13 150.866 452.987 150.827C453.917 150.81 454.84 151.003 455.686 151.392C456.494 151.802 457.141 152.472 457.522 153.294C458.03 154.379 458.265 155.571 458.208 156.768V168.184C458.208 168.269 458.191 168.353 458.158 168.432C458.125 168.51 458.077 168.582 458.016 168.641C457.955 168.701 457.883 168.748 457.804 168.78C457.725 168.811 457.64 168.827 457.555 168.825H456.018C455.934 168.827 455.851 168.81 455.774 168.776C455.697 168.741 455.63 168.69 455.575 168.626C455.511 168.572 455.461 168.504 455.428 168.427C455.396 168.35 455.382 168.267 455.387 168.184V156.712C455.484 155.754 455.206 154.795 454.613 154.035C454.324 153.772 453.985 153.569 453.617 153.438C453.248 153.307 452.857 153.25 452.467 153.272C451.154 153.323 449.861 153.612 448.65 154.124C448.864 154.947 448.965 155.796 448.949 156.646V168.128C448.953 168.208 448.94 168.287 448.911 168.361C448.883 168.436 448.839 168.503 448.783 168.56C448.738 168.629 448.675 168.685 448.602 168.722C448.528 168.759 448.445 168.775 448.363 168.77H446.659C446.582 168.772 446.505 168.755 446.435 168.72C446.366 168.685 446.306 168.634 446.261 168.571C446.158 168.447 446.103 168.29 446.106 168.128V156.646C446.133 155.936 446.043 155.226 445.841 154.544C445.716 154.115 445.431 153.751 445.044 153.527C444.601 153.337 444.121 153.25 443.639 153.272C442.309 153.28 440.985 153.462 439.701 153.814V168.128C439.702 168.213 439.686 168.296 439.653 168.374C439.621 168.452 439.573 168.523 439.513 168.582C439.468 168.644 439.408 168.695 439.339 168.727C439.269 168.76 439.192 168.775 439.115 168.77H437.378C437.306 168.769 437.235 168.751 437.171 168.716C437.107 168.681 437.053 168.631 437.013 168.571C436.918 168.444 436.87 168.287 436.881 168.128Z" fill="#231F20"/>
<path d="M476.77 156.723C476.889 157.365 476.944 158.018 476.936 158.67V161.137C477.041 163.212 476.384 165.254 475.088 166.878C474.403 167.601 473.568 168.164 472.64 168.527C471.713 168.891 470.717 169.045 469.723 168.98C468.74 169.045 467.754 168.891 466.837 168.527C465.92 168.163 465.096 167.6 464.425 166.878C463.12 165.259 462.462 163.214 462.577 161.137V158.67C462.462 156.594 463.12 154.549 464.425 152.929C465.094 152.203 465.917 151.636 466.834 151.269C467.751 150.901 468.738 150.743 469.723 150.805C470.717 150.742 471.712 150.898 472.639 151.261C473.566 151.624 474.402 152.186 475.088 152.907C475.436 153.322 475.737 153.775 475.985 154.257C476.258 153.951 476.418 153.56 476.438 153.15V151.48C476.438 151.259 476.604 151.115 476.969 151.104H478.296C478.395 151.094 478.495 151.121 478.574 151.181C478.654 151.24 478.709 151.327 478.728 151.425C478.971 154.08 478.341 155.85 476.77 156.768M474.104 161.192V158.726C474.124 157.741 473.959 156.762 473.617 155.839C473.355 155.087 472.859 154.439 472.201 153.991C471.457 153.538 470.595 153.315 469.723 153.35C469.108 153.306 468.492 153.411 467.926 153.656C467.36 153.9 466.861 154.277 466.471 154.754C465.69 155.927 465.303 157.318 465.365 158.726V161.192C465.365 164.777 466.792 166.569 469.668 166.569C470.293 166.624 470.922 166.526 471.5 166.283C472.079 166.041 472.589 165.66 472.987 165.175C473.795 164.01 474.185 162.607 474.093 161.192M474.701 143.947C474.691 144.037 474.648 144.12 474.58 144.179L470.929 148.195C470.741 148.416 470.608 148.527 470.542 148.604C470.434 148.663 470.312 148.694 470.188 148.692H468.429C468.252 148.692 468.142 148.604 468.142 148.46C468.139 148.399 468.149 148.337 468.172 148.28C468.195 148.223 468.23 148.171 468.274 148.128L471.427 144.124C471.545 143.977 471.678 143.844 471.825 143.726C471.953 143.679 472.088 143.657 472.223 143.659H474.347C474.591 143.659 474.712 143.726 474.712 143.892" fill="#231F20"/>
<path d="M484.48 147.553C484.482 147.637 484.468 147.72 484.437 147.798C484.407 147.875 484.361 147.947 484.303 148.007C484.173 148.125 484.004 148.192 483.827 148.195H482.179C482.098 148.196 482.017 148.18 481.943 148.148C481.868 148.115 481.802 148.067 481.748 148.007C481.682 147.951 481.628 147.882 481.592 147.803C481.556 147.725 481.537 147.639 481.538 147.553V144.987C481.537 144.901 481.553 144.815 481.585 144.736C481.617 144.656 481.665 144.583 481.726 144.522C481.849 144.406 482.01 144.34 482.179 144.334H483.827C483.916 144.328 484.004 144.342 484.086 144.375C484.169 144.407 484.243 144.458 484.303 144.522C484.363 144.583 484.41 144.656 484.44 144.736C484.471 144.816 484.484 144.901 484.48 144.987V147.553ZM484.414 168.128C484.414 168.213 484.398 168.296 484.366 168.374C484.333 168.452 484.286 168.523 484.226 168.582C484.166 168.644 484.094 168.694 484.014 168.726C483.933 168.758 483.847 168.773 483.761 168.77H482.212C482.129 168.768 482.047 168.75 481.971 168.715C481.895 168.681 481.826 168.632 481.77 168.571C481.706 168.516 481.656 168.448 481.621 168.372C481.587 168.295 481.57 168.212 481.571 168.128V151.679C481.57 151.596 481.588 151.513 481.622 151.436C481.657 151.36 481.707 151.292 481.77 151.237C481.887 151.119 482.046 151.052 482.212 151.049H483.761C483.934 151.046 484.103 151.105 484.237 151.215C484.353 151.341 484.416 151.507 484.414 151.679V168.128Z" fill="#231F20"/>
<path d="M498.75 52.011C494.956 52.011 492.865 54.146 492.865 58.0398C492.865 60.2522 493.639 64.0022 498.75 64.0022C504.082 64.0022 504.889 60.2743 504.889 58.0398C504.889 55.8053 504.082 52.011 498.75 52.011Z" fill="#231F20"/>
<path d="M383.164 68.6261H357.124C340.874 68.6261 334.513 73.9137 334.513 87.4314V108.449C334.513 121.723 340.774 126.945 356.847 126.945H383.164C398.883 126.945 405.011 121.746 405.011 108.449V87.354C405.011 74.0796 398.695 68.6261 383.164 68.6261ZM347.766 87.4314C347.766 82.6637 347.766 80.7057 355.763 80.7057H384.646C391.593 80.7057 391.593 82.0664 391.593 86.5907V108.482C391.593 113.56 391.593 114.777 384.646 114.777H355.785C347.788 114.777 347.788 113.184 347.788 108.482L347.766 87.4314Z" fill="#231F20"/>
<path d="M461.46 68.6261H426.416V33.4159C426.416 29.4336 423.96 27.0553 419.867 27.0553C415.774 27.0553 413.407 29.3119 413.407 33.4159V108.637C413.407 121.712 420.254 127.044 437.024 127.044H461.516C477.821 127.044 484.469 121.591 484.469 108.239V87.354C484.469 74.0796 477.832 68.6261 461.516 68.6261M465.133 114.799H435.266C426.416 114.799 426.416 112.852 426.416 108.593V80.7279H463.341C471.637 80.7279 471.637 82.7854 471.637 87.7633V107.962C471.637 113.626 471.637 114.799 465.077 114.799" fill="#231F20"/>
<path d="M498.584 66.812C494.912 66.812 492.721 69.323 492.721 73.5597V120.131C492.721 124.423 494.934 127 498.772 127C502.611 127 504.989 124.423 504.989 120.131V73.5597C504.989 69.2677 502.666 66.812 498.584 66.812Z" fill="#231F20"/>
<path d="M519.602 27C515.653 27 513.396 29.3673 513.396 33.4934V120.496C513.396 124.633 515.697 127 519.69 127C523.684 127 525.907 124.566 525.907 120.496V33.4934C525.907 29.3673 523.606 27 519.602 27Z" fill="#231F20"/>
<path d="M585.697 68.6261H557.312C540.785 68.6261 534.082 74.0243 534.082 87.2323V108.184C534.082 120.661 543.363 126.989 561.593 126.989H569.181C572.843 126.989 575.111 124.622 575.111 120.827C575.111 117.033 572.898 114.788 569.181 114.788H559.226C547.312 114.788 547.312 110.75 547.312 109.423V104.577H598.916C601.217 104.577 605.088 103.737 605.088 98.1283V85.1416C605.088 75.1858 601.77 68.6261 585.785 68.6261M547.257 86.6128C547.257 82.3208 547.257 80.7279 555.221 80.7279H587.566C590.42 80.7279 591.316 81.1703 591.582 81.4358C592.091 81.9115 592.069 83.4381 592.069 85.208V92.177H547.257V86.6128Z" fill="#231F20"/>
<path d="M303.695 68.1172H293.993C286.77 68.1172 281.659 69.2234 278.097 71.4358C274.535 69.1571 269.425 68.1172 262.212 68.1172H252.5C236.316 68.1172 230.022 73.3827 230.022 86.9226V120.639C230.022 124.345 232.035 125.872 233.684 126.48C235.601 127.162 237.695 127.162 239.613 126.48C240.94 125.96 243.186 124.5 243.186 120.639V86.9226C243.186 82.177 243.186 80.208 251.161 80.208H263.529C271.427 80.208 271.46 82.2765 271.504 86.4026V86.9226V120.639C271.441 122.096 271.874 123.531 272.732 124.71C273.333 125.508 274.146 126.121 275.077 126.48C275.989 126.827 276.956 127.003 277.931 127H278.241C279.224 127.008 280.2 126.832 281.117 126.48C282.04 126.122 282.848 125.517 283.451 124.732C284.314 123.546 284.754 122.105 284.701 120.639V86.9226V86.4026C284.701 82.2765 284.701 80.208 292.666 80.208H305C312.976 80.208 312.976 82.177 312.976 86.9226V120.639C312.976 124.5 315.188 125.96 316.538 126.48C317.403 126.813 318.321 126.986 319.248 126.989H319.491C320.498 127.001 321.499 126.828 322.445 126.48C323.827 125.971 326.15 124.511 326.15 120.628V86.9226C326.15 73.3827 319.834 68.1172 303.65 68.1172" fill="#231F20"/>
<path d="M195.697 79.3009C198.682 82.2751 201.05 85.8092 202.666 89.7007C204.282 93.5921 205.114 97.7643 205.114 101.978C205.114 106.191 204.282 110.364 202.666 114.255C201.05 118.147 198.682 121.681 195.697 124.655L127.765 192.597C121.75 198.609 113.593 201.987 105.089 201.987C96.5838 201.987 88.4271 198.609 82.4115 192.597L14.4027 124.688C11.4249 121.716 9.06247 118.185 7.4506 114.299C5.83874 110.412 5.00906 106.246 5.00906 102.039C5.00906 97.8313 5.83874 93.6651 7.4506 89.7787C9.06247 85.8923 11.4249 82.3618 14.4027 79.3894L82.3673 11.4027C88.3828 5.39068 96.5395 2.01349 105.044 2.01349C113.549 2.01349 121.706 5.39068 127.721 11.4027L195.697 79.3009Z" fill="#FFC425"/>
<path d="M127.765 64.7434L116.35 76.1593C115.302 77.2074 114.471 78.4515 113.905 79.8207C113.338 81.1898 113.047 82.6571 113.048 84.1389C113.049 87.1313 114.238 90.0009 116.355 92.1161C118.472 94.2314 121.342 95.4192 124.335 95.4182C127.327 95.4171 130.197 94.2274 132.312 92.1106L139.392 85.031C139.392 85.031 141.958 87.5752 148.053 93.6593L155.144 100.739L106.471 149.411C104.259 151.624 101.571 151.812 99.4911 149.721L58.0973 108.383C57.6748 107.96 57.3423 107.456 57.1199 106.901C56.8974 106.347 56.7897 105.753 56.8031 105.155C56.8166 104.558 56.9509 103.969 57.1981 103.425C57.4452 102.881 57.8 102.392 58.2411 101.989L115.31 44.9203C116.397 43.8786 117.265 42.6299 117.862 41.2478C118.46 39.8657 118.775 38.378 118.789 36.8723C118.804 35.3666 118.517 33.8733 117.945 32.4801C117.374 31.0869 116.53 29.8221 115.463 28.7599C114.395 27.6978 113.126 26.8597 111.73 26.2952C110.334 25.7306 108.84 25.4509 107.334 25.4724C105.829 25.494 104.342 25.8163 102.963 26.4206C101.584 27.0249 100.34 27.8989 99.3031 28.9911L34.4469 93.8695C31.4234 96.9595 29.7478 101.122 29.7872 105.445C29.8266 109.768 31.5778 113.899 34.6571 116.934L91.1836 173.35C94.2162 176.431 98.3482 178.181 102.671 178.216C106.994 178.252 111.154 176.569 114.237 173.538L175.653 112.1C178.68 109.014 180.359 104.854 180.321 100.532C180.284 96.2097 178.533 92.079 175.454 89.0464L166.726 80.396L164.038 77.6637L150.841 64.4779C147.749 61.4524 143.583 59.7767 139.257 59.8182C134.932 59.8596 130.799 61.6149 127.765 64.6991" fill="#231F20"/>
</g>
<defs>
<clipPath id="clip0_307_543">
<rect width="600" height="200" fill="white" transform="translate(5 2)"/>
</clipPath>
</defs>
</svg>
