<?xml version="1.0" encoding="utf-8"?>
<!-- Generator: Adobe Illustrator 24.0.0, SVG Export Plug-In . SVG Version: 6.00 Build 0)  -->
<svg version="1.1" id="Layer_1" xmlns="http://www.w3.org/2000/svg" xmlns:xlink="http://www.w3.org/1999/xlink" x="0px" y="0px"
	 viewBox="0 0 610 204" style="enable-background:new 0 0 610 204;" xml:space="preserve">
<style type="text/css">
	.st0{clip-path:url(#SVGID_2_);}
	.st1{fill:#FFFFFF;}
	.st2{fill:#FFC425;}
</style>
<g>
	<defs>
		<rect id="SVGID_1_" x="5" y="2" width="600" height="200"/>
	</defs>
	<clipPath id="SVGID_2_">
		<use xlink:href="#SVGID_1_"  style="overflow:visible;"/>
	</clipPath>
	<g class="st0">
		<path class="st1" d="M246.9,167.9c0,0.1,0,0.2-0.1,0.4c0,0.1-0.1,0.2-0.2,0.3c-0.1,0.1-0.2,0.2-0.3,0.2c-0.1,0-0.2,0.1-0.4,0.1h-2
			c-0.2,0-0.4,0-0.6-0.1c-0.2-0.1-0.4-0.2-0.5-0.4l-10-18.9c0,0,0-0.1-0.1-0.1c0,0-0.1,0-0.1,0.1v18.8c0,0.1,0,0.2,0,0.2
			c0,0.1-0.1,0.1-0.1,0.2c0,0.1-0.1,0.1-0.2,0.1c-0.1,0-0.1,0-0.2,0h-1.7c-0.4,0-0.6-0.1-0.6-0.4v-22.6c0-0.1,0-0.2,0.1-0.4
			c0-0.1,0.1-0.2,0.2-0.3c0.1-0.1,0.2-0.2,0.3-0.2c0.1,0,0.2-0.1,0.4-0.1h1.8c0.3,0,0.6,0,0.9,0.1c0.2,0.1,0.4,0.3,0.4,0.5l10,18.8
			v0.1c0,0,0,0,0-0.1v-18.8c0-0.1,0-0.2,0-0.2c0-0.1,0.1-0.1,0.1-0.2c0.1-0.1,0.1-0.1,0.2-0.1c0.1,0,0.2,0,0.2,0h1.8
			c0.1,0,0.2,0,0.2,0c0.1,0,0.1,0.1,0.2,0.1c0.1,0.1,0.1,0.3,0.1,0.4L246.9,167.9z"/>
		<path class="st1" d="M258.3,172.8c0.8,0,1.6-0.1,2.4-0.3c0.6-0.2,1-0.6,1.3-1.2c0.3-0.8,0.4-1.7,0.4-2.5v-0.2
			c-0.4,0.1-1,0.2-1.7,0.3c-0.6,0.1-1.2,0.1-1.9,0.1c-4.8,0-7.2-2.6-7.2-7.9v-2.4c0-1.5,0.2-3,0.8-4.4c0.5-1.1,1.3-2,2.4-2.6
			c1.3-0.6,2.6-0.9,4-0.9c1.9,0,3.9,0.3,5.8,0.8c0.2,0,0.4,0.1,0.5,0.2c0.1,0.1,0.1,0.2,0.1,0.2c0,0.1,0,0.2,0,0.3v16.5
			c0,2.3-0.6,3.9-1.7,4.9c-1.5,1.1-3.3,1.6-5.2,1.4c-1.1,0-2.1-0.1-3.1-0.4c-0.8-0.2-1.5-0.5-2.2-0.8c-0.1-0.1-0.3-0.2-0.3-0.3
			s-0.1-0.3-0.1-0.4v-1.1c0-0.1,0-0.2,0.1-0.2c0-0.1,0.1-0.1,0.2-0.2c0.1-0.1,0.2-0.1,0.3-0.1c0.1,0,0.2,0,0.3,0.1
			c1.1,0.4,1.9,0.7,2.6,0.9C256.6,172.7,257.4,172.8,258.3,172.8 M262.3,166.2v-12.7c-1.2-0.2-2.4-0.3-3.6-0.3c-0.7,0-1.4,0.1-2,0.3
			c-0.5,0.2-1,0.5-1.4,1c-0.4,0.5-0.6,1.1-0.7,1.7c-0.2,0.8-0.2,1.7-0.2,2.5v2.4c0,1.1,0.1,2.3,0.5,3.3c0.3,0.7,0.8,1.3,1.4,1.7
			c0.8,0.4,1.6,0.6,2.4,0.5c0.6,0,1.2,0,1.8-0.1C261.1,166.5,261.7,166.4,262.3,166.2"/>
		<path class="st1" d="M283.6,168.1c0,0.1,0,0.2-0.1,0.2c0,0.1-0.1,0.1-0.2,0.2c-0.1,0.1-0.1,0.1-0.2,0.1c-0.1,0-0.2,0.1-0.2,0.1
			h-1.5c-0.1,0-0.2,0-0.2,0c-0.1,0-0.1-0.1-0.2-0.2c-0.1-0.1-0.1-0.1-0.1-0.2c0-0.1-0.1-0.2-0.1-0.2v-10.6c0.1-1.2-0.2-2.4-0.9-3.3
			c-0.3-0.3-0.8-0.6-1.2-0.7c-0.4-0.2-0.9-0.2-1.4-0.2c-0.7,0-1.5,0.1-2.2,0.2c-0.8,0.1-1.5,0.3-2.2,0.7v13.9c0,0.1,0,0.2-0.1,0.2
			c0,0.1-0.1,0.1-0.1,0.2c-0.1,0.1-0.1,0.1-0.2,0.2c-0.1,0-0.2,0.1-0.3,0.1h-1.5c-0.1,0-0.2,0-0.2,0s-0.1-0.1-0.2-0.2
			c-0.1-0.1-0.1-0.1-0.2-0.2c0-0.1-0.1-0.2-0.1-0.2v-22.9c0-0.1,0-0.2,0.1-0.2c0-0.1,0.1-0.1,0.1-0.2c0.1-0.1,0.1-0.1,0.2-0.1
			c0.1,0,0.2,0,0.2,0h1.6c0.1,0,0.2,0,0.3,0c0.1,0,0.2,0.1,0.2,0.1c0.1,0.1,0.2,0.3,0.2,0.5v6.6c0.8-0.3,1.6-0.6,2.5-0.8
			c0.8-0.2,1.6-0.2,2.5-0.3c1.1,0,2.1,0.2,3,0.7c0.9,0.5,1.6,1.3,2,2.2c0.5,1.2,0.8,2.5,0.7,3.8L283.6,168.1z"/>
		<path class="st1" d="M296.5,145.5c0.1,0.9-0.2,1.8-0.7,2.5c-0.3,0.3-0.7,0.5-1.1,0.7c-0.4,0.1-0.8,0.2-1.3,0.2
			c-0.7,0-1.5-0.2-2.1-0.7l-2-1.5c-0.2-0.2-0.5-0.4-0.8-0.6c-0.2-0.1-0.4-0.1-0.6-0.1c-0.2,0-0.3,0-0.4,0.1s-0.3,0.2-0.3,0.3
			c-0.2,0.3-0.2,0.7-0.2,1.1v0.7c0,0.1,0,0.1,0,0.2c0,0.1-0.1,0.1-0.1,0.2c-0.1,0.1-0.3,0.2-0.4,0.2h-1c-0.1,0-0.1,0-0.2,0
			c-0.1,0-0.1-0.1-0.2-0.1c-0.1,0-0.1-0.1-0.1-0.2c0-0.1,0-0.1,0-0.2v-0.7c-0.1-0.9,0.2-1.9,0.8-2.6c0.3-0.3,0.6-0.5,1-0.7
			c0.4-0.2,0.8-0.2,1.2-0.2c0.7,0,1.4,0.3,1.9,0.8l2.3,1.8c0.2,0.1,0.4,0.3,0.6,0.3c0.2,0.1,0.3,0.1,0.5,0.1c0.1,0,0.3,0,0.4-0.1
			c0.1-0.1,0.2-0.1,0.3-0.2c0.2-0.3,0.3-0.7,0.2-1.1v-0.7c0-0.1,0-0.1,0-0.2c0-0.1,0.1-0.1,0.1-0.2c0.1-0.1,0.2-0.2,0.4-0.2h1
			c0.1,0,0.1,0,0.2,0c0.1,0,0.1,0.1,0.2,0.1c0.1,0.1,0.2,0.2,0.2,0.4V145.5z M291.6,168.1c0,0.1,0,0.2,0,0.2c0,0.1-0.1,0.1-0.1,0.2
			c-0.1,0.1-0.1,0.1-0.2,0.1c-0.1,0-0.2,0-0.3,0h-1.5c-0.2,0-0.3-0.1-0.4-0.2c-0.1-0.1-0.2-0.3-0.2-0.4v-16.4c0-0.1,0-0.2,0.1-0.2
			c0-0.1,0.1-0.1,0.2-0.2c0.1-0.1,0.1-0.1,0.2-0.1c0.1,0,0.2,0,0.2,0h1.5c0.2,0,0.3,0.1,0.5,0.2c0.1,0.1,0.2,0.3,0.2,0.5V168.1z"/>
		<path class="st1" d="M306,168.1v-15.5c0-0.2,0-0.4,0.1-0.5c0.1-0.1,0.3-0.2,0.4-0.3c1.2-0.3,2.4-0.6,3.7-0.8
			c0.9-0.2,1.9-0.2,2.8-0.2c0.7,0,1.5,0.1,2.1,0.3c0.6,0.2,1.2,0.5,1.6,1c1.7-0.8,3.5-1.3,5.4-1.3c0.9,0,1.9,0.2,2.7,0.6
			c0.8,0.4,1.4,1.1,1.8,1.9c0.5,1.1,0.7,2.3,0.7,3.5v11.4c0,0.1,0,0.2,0,0.2c0,0.1-0.1,0.1-0.1,0.2c-0.1,0.1-0.1,0.1-0.2,0.1
			c-0.1,0-0.2,0-0.2,0h-1.5c-0.1,0-0.2,0-0.3-0.1c-0.1,0-0.2-0.1-0.2-0.1c-0.1-0.1-0.1-0.1-0.1-0.2s0-0.2,0-0.2v-11.5
			c0.1-0.5,0-1-0.1-1.4c-0.1-0.5-0.3-0.9-0.6-1.3c-0.3-0.3-0.6-0.5-1-0.6c-0.4-0.1-0.8-0.2-1.1-0.2c-1.3,0.1-2.6,0.3-3.8,0.9
			c0.2,0.8,0.3,1.7,0.3,2.5v11.5c0,0.1,0,0.2,0,0.2c0,0.1-0.1,0.1-0.1,0.2c0,0.1-0.1,0.1-0.2,0.2s-0.2,0.1-0.2,0.1h-1.7
			c-0.1,0-0.2,0-0.2-0.1c-0.1,0-0.1-0.1-0.2-0.1c-0.1-0.1-0.1-0.3-0.1-0.4v-11.4c0-0.7-0.1-1.4-0.3-2.1c-0.1-0.4-0.4-0.8-0.8-1
			c-0.4-0.2-0.9-0.3-1.4-0.3c-1.3,0-2.6,0.2-3.9,0.5v14.3c0,0.2-0.1,0.3-0.2,0.5c0,0.1-0.1,0.1-0.2,0.1c-0.1,0-0.2,0-0.2,0h-1.7
			c-0.1,0-0.1,0-0.2-0.1c-0.1,0-0.1-0.1-0.2-0.1C306.1,168.4,306.1,168.3,306,168.1"/>
		<path class="st1" d="M345.9,156.7c0.1,0.6,0.2,1.3,0.2,1.9v2.5c0.1,2.1-0.5,4.1-1.8,5.7c-1.4,1.4-3.3,2.1-5.3,2.1
			c-2,0-3.9-0.8-5.3-2.1c-1.3-1.6-2-3.7-1.8-5.7v-2.5c-0.1-2.1,0.5-4.1,1.8-5.7c0.7-0.7,1.5-1.3,2.4-1.7c0.9-0.4,1.9-0.5,2.9-0.5
			c1-0.1,2,0.1,2.9,0.5c0.9,0.4,1.8,0.9,2.4,1.6c0.3,0.4,0.6,0.9,0.9,1.4c0.3-0.3,0.4-0.7,0.4-1.1v-1.7c0-0.2,0.2-0.4,0.5-0.4h1.3
			c0.1,0,0.2,0,0.3,0.1c0.1,0.1,0.1,0.1,0.2,0.2C348.1,154.1,347.5,155.9,345.9,156.7 M343.3,161.2v-2.5c0-1-0.1-2-0.5-2.9
			c-0.3-0.7-0.8-1.4-1.4-1.8c-0.7-0.5-1.6-0.7-2.4-0.7c-0.6-0.1-1.3,0-1.8,0.3c-0.6,0.2-1.1,0.6-1.5,1.1c-0.8,1.2-1.2,2.6-1.1,4v2.5
			c0,3.6,1.4,5.4,4.3,5.4c0.6,0,1.2-0.1,1.8-0.3c0.6-0.2,1.1-0.6,1.5-1.1C342.9,164,343.3,162.6,343.3,161.2 M343.8,143.9
			c0,0,0,0.1,0,0.1c0,0-0.1,0.1-0.1,0.1l-3.6,4.1c-0.2,0.2-0.3,0.3-0.4,0.4c-0.1,0.1-0.2,0.1-0.3,0.1h-1.8c-0.2,0-0.3-0.1-0.3-0.2
			c0-0.1,0-0.2,0.1-0.3l3.2-4c0.2-0.2,0.3-0.3,0.4-0.4c0.1,0,0.3-0.1,0.4-0.1h2.1C343.7,143.7,343.8,143.8,343.8,143.9z"/>
		<path class="st1" d="M353.7,147.6c0,0.1,0,0.2,0,0.2c0,0.1-0.1,0.1-0.1,0.2c-0.1,0.1-0.3,0.2-0.5,0.2h-1.7c-0.1,0-0.2,0-0.2,0
			c-0.1,0-0.1-0.1-0.2-0.1c-0.1-0.1-0.1-0.1-0.1-0.2c0-0.1,0-0.2,0-0.2V145c0-0.2,0.1-0.3,0.2-0.5c0.1-0.1,0.3-0.2,0.5-0.2h1.6
			c0.1,0,0.2,0,0.3,0c0.1,0,0.2,0.1,0.2,0.1c0.1,0.1,0.1,0.1,0.1,0.2c0,0.1,0,0.2,0,0.3L353.7,147.6z M353.7,168.1
			c0,0.1,0,0.2-0.1,0.2c0,0.1-0.1,0.1-0.1,0.2c-0.1,0.1-0.1,0.1-0.2,0.1c-0.1,0-0.2,0-0.2,0h-1.6c-0.1,0-0.2,0-0.2-0.1
			c-0.1,0-0.1-0.1-0.2-0.1c-0.1-0.1-0.1-0.1-0.2-0.2c0-0.1-0.1-0.2,0-0.2v-16.4c0-0.1,0-0.2,0-0.2c0-0.1,0.1-0.1,0.1-0.2
			c0.1-0.1,0.1-0.1,0.2-0.1c0.1,0,0.2,0,0.2,0h1.6c0.2,0,0.3,0.1,0.5,0.2c0.1,0.1,0.2,0.3,0.2,0.5V168.1z"/>
		<path class="st1" d="M362.5,165c0,0.1,0,0.2-0.1,0.3l-2.4,6.1c-0.1,0.2-0.1,0.3-0.3,0.5c0,0.1-0.1,0.1-0.2,0.1c-0.1,0-0.1,0-0.2,0
			h-1.6c-0.2,0-0.4-0.1-0.4-0.4c0-0.1,0-0.1,0-0.2l1.8-6.1c0.1-0.4,0.3-0.6,0.6-0.6h2.1C362.3,164.6,362.5,164.7,362.5,165"/>
		<path class="st1" d="M378.9,168.1c0,0.2,0,0.3-0.1,0.5c-0.1,0.1-0.1,0.1-0.2,0.1c-0.1,0-0.2,0-0.2,0h-1.6c-0.1,0-0.2,0-0.2,0
			s-0.1-0.1-0.2-0.1c-0.1-0.1-0.2-0.3-0.2-0.5v-23c0-0.2,0.1-0.3,0.2-0.4c0.1-0.1,0.1-0.1,0.2-0.1c0.1,0,0.2-0.1,0.2-0.1h1.6
			c0.1,0,0.2,0,0.2,0c0.1,0,0.1,0.1,0.2,0.1c0.1,0.1,0.1,0.3,0.1,0.4V168.1z"/>
		<path class="st1" d="M396.5,167.5c0,0.2,0,0.3-0.1,0.4c-0.1,0.1-0.2,0.2-0.4,0.3c-0.8,0.2-1.7,0.4-2.6,0.5c-1,0.1-1.9,0.2-2.9,0.2
			c-2.5,0-4.3-0.4-5.4-1.3c-0.6-0.5-1-1.1-1.3-1.8c-0.3-0.7-0.4-1.5-0.3-2.2v-0.3c0-1,0.2-2.1,0.8-3c0.6-0.8,1.5-1.4,2.5-1.7
			c1.5-0.4,3-0.6,4.5-0.6h2.4v-1.3c0.1-1-0.2-2-0.8-2.8c-0.8-0.6-1.7-0.9-2.7-0.8c-0.9,0-1.7,0.1-2.5,0.2c-0.8,0.2-1.6,0.4-2.4,0.6
			c-0.1,0-0.2,0.1-0.3,0.1c-0.1,0-0.2,0-0.3-0.1c-0.1,0-0.1-0.1-0.2-0.2c0-0.1-0.1-0.1,0-0.2v-1.3c0-0.1,0-0.3,0.1-0.4
			c0.1-0.1,0.2-0.2,0.3-0.2c0.7-0.3,1.5-0.5,2.2-0.7c1-0.2,2-0.4,3-0.4c4.2,0,6.3,2,6.3,6.1V167.5z M392.4,148.5
			c0,0.1-0.1,0.2-0.3,0.2h-1.7c-0.1,0-0.2,0-0.3,0c-0.1,0-0.2-0.1-0.2-0.1c-0.1-0.1-0.2-0.2-0.3-0.3l-3.6-4.1
			c-0.1-0.1-0.1-0.1-0.1-0.2c0-0.2,0.1-0.2,0.4-0.2h2.1c0.2,0,0.3,0.1,0.5,0.1c0.1,0.1,0.3,0.2,0.4,0.3l3.1,4c0,0,0.1,0.1,0.1,0.1
			C392.4,148.4,392.4,148.5,392.4,148.5 M393.7,166.5v-6.3h-2.4c-0.8,0-1.6,0-2.4,0.2c-0.5,0.1-1,0.3-1.5,0.6
			c-0.3,0.2-0.6,0.6-0.8,1c-0.2,0.5-0.2,1-0.2,1.5v0.3c0,0.6,0.1,1.3,0.4,1.8c0.1,0.2,0.3,0.5,0.5,0.6c0.2,0.2,0.5,0.3,0.7,0.4
			c0.8,0.2,1.7,0.3,2.6,0.3c0.4,0,0.9,0,1.3,0c0.4,0,0.8-0.1,1.1-0.1L393.7,166.5"/>
		<path class="st1" d="M401.4,168.1v-15.5c0-0.2,0-0.4,0.1-0.5s0.3-0.2,0.4-0.3c1.2-0.3,2.4-0.6,3.6-0.8c0.9-0.2,1.9-0.2,2.8-0.2
			c0.7,0,1.4,0.1,2.1,0.3c0.6,0.2,1.2,0.5,1.6,1c1.7-0.8,3.5-1.3,5.3-1.3c0.9,0,1.9,0.2,2.7,0.6c0.8,0.4,1.5,1.1,1.8,1.9
			c0.5,1.1,0.7,2.3,0.7,3.5v11.4c0,0.1,0,0.2-0.1,0.2c0,0.1-0.1,0.1-0.1,0.2c-0.1,0.1-0.1,0.1-0.2,0.1c-0.1,0-0.2,0-0.2,0h-1.5
			c-0.1,0-0.2,0-0.2-0.1c-0.1,0-0.1-0.1-0.2-0.1c-0.1-0.1-0.1-0.1-0.1-0.2c0-0.1,0-0.2,0-0.2v-11.5c0.1-1-0.2-1.9-0.8-2.7
			c-0.3-0.3-0.6-0.5-1-0.6c-0.4-0.1-0.8-0.2-1.2-0.2c-1.3,0.1-2.6,0.3-3.8,0.9c0.2,0.8,0.3,1.7,0.3,2.5v11.5c0,0.2,0,0.3-0.1,0.4
			c-0.1,0.1-0.1,0.1-0.2,0.2c-0.1,0-0.2,0.1-0.2,0.1h-1.7c-0.1,0-0.2,0-0.2,0c-0.1,0-0.1-0.1-0.2-0.1c-0.1-0.1-0.2-0.3-0.2-0.4
			v-11.5c0-0.7-0.1-1.4-0.3-2.1c-0.1-0.4-0.4-0.8-0.8-1c-0.4-0.2-0.9-0.3-1.4-0.3c-1.3,0-2.7,0.2-3.9,0.5v14.3c0,0.2,0,0.3-0.2,0.5
			c-0.1,0.1-0.1,0.1-0.2,0.1c-0.1,0-0.2,0-0.2,0h-1.7c-0.1,0-0.1,0-0.2,0c-0.1,0-0.1-0.1-0.2-0.1
			C401.4,168.4,401.4,168.3,401.4,168.1"/>
		<path class="st1" d="M436.9,168.1v-15.5c0-0.2,0-0.4,0.1-0.5c0.1-0.1,0.3-0.2,0.4-0.3c1.2-0.3,2.4-0.6,3.6-0.8
			c0.9-0.2,1.9-0.2,2.9-0.2c0.7,0,1.4,0.1,2.1,0.3c0.6,0.2,1.2,0.5,1.6,1c1.7-0.8,3.5-1.3,5.3-1.3c0.9,0,1.9,0.2,2.7,0.6
			c0.8,0.4,1.5,1.1,1.8,1.9c0.5,1.1,0.7,2.3,0.7,3.5v11.4c0,0.1,0,0.2-0.1,0.2c0,0.1-0.1,0.1-0.1,0.2c-0.1,0.1-0.1,0.1-0.2,0.1
			c-0.1,0-0.2,0-0.2,0H456c-0.1,0-0.2,0-0.2,0c-0.1,0-0.1-0.1-0.2-0.1c-0.1-0.1-0.1-0.1-0.1-0.2c0-0.1,0-0.2,0-0.2v-11.5
			c0.1-1-0.2-1.9-0.8-2.7c-0.3-0.3-0.6-0.5-1-0.6c-0.4-0.1-0.8-0.2-1.1-0.2c-1.3,0.1-2.6,0.3-3.8,0.9c0.2,0.8,0.3,1.7,0.3,2.5v11.5
			c0,0.1,0,0.2,0,0.2c0,0.1-0.1,0.1-0.1,0.2c0,0.1-0.1,0.1-0.2,0.2c-0.1,0-0.2,0.1-0.2,0h-1.7c-0.1,0-0.2,0-0.2-0.1
			c-0.1,0-0.1-0.1-0.2-0.1c-0.1-0.1-0.2-0.3-0.2-0.4v-11.5c0-0.7-0.1-1.4-0.3-2.1c-0.1-0.4-0.4-0.8-0.8-1c-0.4-0.2-0.9-0.3-1.4-0.3
			c-1.3,0-2.7,0.2-3.9,0.5v14.3c0,0.1,0,0.2,0,0.2c0,0.1-0.1,0.1-0.1,0.2c0,0.1-0.1,0.1-0.2,0.1c-0.1,0-0.1,0-0.2,0h-1.7
			c-0.1,0-0.1,0-0.2-0.1s-0.1-0.1-0.2-0.1C436.9,168.4,436.9,168.3,436.9,168.1z"/>
		<path class="st1" d="M476.8,156.7c0.1,0.6,0.2,1.3,0.2,1.9v2.5c0.1,2.1-0.6,4.1-1.8,5.7c-0.7,0.7-1.5,1.3-2.4,1.6
			c-0.9,0.4-1.9,0.5-2.9,0.5c-1,0.1-2-0.1-2.9-0.5c-0.9-0.4-1.7-0.9-2.4-1.6c-1.3-1.6-2-3.7-1.8-5.7v-2.5c-0.1-2.1,0.5-4.1,1.8-5.7
			c0.7-0.7,1.5-1.3,2.4-1.7c0.9-0.4,1.9-0.5,2.9-0.5c1-0.1,2,0.1,2.9,0.5c0.9,0.4,1.8,0.9,2.4,1.6c0.3,0.4,0.6,0.9,0.9,1.4
			c0.3-0.3,0.4-0.7,0.5-1.1v-1.7c0-0.2,0.2-0.4,0.5-0.4h1.3c0.1,0,0.2,0,0.3,0.1c0.1,0.1,0.1,0.1,0.2,0.2
			C479,154.1,478.3,155.9,476.8,156.7 M474.1,161.2v-2.5c0-1-0.1-2-0.5-2.9c-0.3-0.8-0.8-1.4-1.4-1.8c-0.7-0.5-1.6-0.7-2.5-0.6
			c-0.6,0-1.2,0.1-1.8,0.3c-0.6,0.2-1.1,0.6-1.5,1.1c-0.8,1.2-1.2,2.6-1.1,4v2.5c0,3.6,1.4,5.4,4.3,5.4c0.6,0.1,1.3,0,1.8-0.3
			c0.6-0.2,1.1-0.6,1.5-1.1C473.8,164,474.2,162.6,474.1,161.2 M474.7,143.9c0,0.1-0.1,0.2-0.1,0.2l-3.7,4c-0.2,0.2-0.3,0.3-0.4,0.4
			c-0.1,0.1-0.2,0.1-0.4,0.1h-1.8c-0.2,0-0.3-0.1-0.3-0.2c0-0.1,0-0.1,0-0.2c0-0.1,0.1-0.1,0.1-0.2l3.2-4c0.1-0.1,0.3-0.3,0.4-0.4
			c0.1,0,0.3-0.1,0.4-0.1h2.1C474.6,143.7,474.7,143.7,474.7,143.9"/>
		<path class="st1" d="M484.5,147.6c0,0.1,0,0.2,0,0.2c0,0.1-0.1,0.1-0.1,0.2c-0.1,0.1-0.3,0.2-0.5,0.2h-1.6c-0.1,0-0.2,0-0.2,0
			c-0.1,0-0.1-0.1-0.2-0.1c-0.1-0.1-0.1-0.1-0.2-0.2c0-0.1-0.1-0.2-0.1-0.3V145c0-0.1,0-0.2,0-0.3c0-0.1,0.1-0.2,0.1-0.2
			c0.1-0.1,0.3-0.2,0.5-0.2h1.6c0.1,0,0.2,0,0.3,0c0.1,0,0.2,0.1,0.2,0.1c0.1,0.1,0.1,0.1,0.1,0.2c0,0.1,0,0.2,0,0.3V147.6z
			 M484.4,168.1c0,0.1,0,0.2,0,0.2c0,0.1-0.1,0.1-0.1,0.2c-0.1,0.1-0.1,0.1-0.2,0.1c-0.1,0-0.2,0-0.3,0h-1.5c-0.1,0-0.2,0-0.2-0.1
			c-0.1,0-0.1-0.1-0.2-0.1c-0.1-0.1-0.1-0.1-0.1-0.2c0-0.1-0.1-0.2,0-0.2v-16.4c0-0.1,0-0.2,0.1-0.2c0-0.1,0.1-0.1,0.1-0.2
			c0.1-0.1,0.3-0.2,0.4-0.2h1.5c0.2,0,0.3,0.1,0.5,0.2c0.1,0.1,0.2,0.3,0.2,0.5V168.1z"/>
		<path class="st1" d="M498.8,52c-3.8,0-5.9,2.1-5.9,6c0,2.2,0.8,6,5.9,6c5.3,0,6.1-3.7,6.1-6C504.9,55.8,504.1,52,498.8,52z"/>
		<path class="st1" d="M383.2,68.6h-26c-16.3,0-22.6,5.3-22.6,18.8v21c0,13.3,6.3,18.5,22.3,18.5h26.3c15.7,0,21.8-5.2,21.8-18.5
			V87.4C405,74.1,398.7,68.6,383.2,68.6z M347.8,87.4c0-4.8,0-6.7,8-6.7h28.9c6.9,0,6.9,1.4,6.9,5.9v21.9c0,5.1,0,6.3-6.9,6.3h-28.9
			c-8,0-8-1.6-8-6.3L347.8,87.4z"/>
		<path class="st1" d="M461.5,68.6h-35V33.4c0-4-2.5-6.4-6.5-6.4c-4.1,0-6.5,2.3-6.5,6.4v75.2c0,13.1,6.8,18.4,23.6,18.4h24.5
			c16.3,0,23-5.5,23-18.8V87.4C484.5,74.1,477.8,68.6,461.5,68.6 M465.1,114.8h-29.9c-8.9,0-8.9-1.9-8.9-6.2V80.7h36.9
			c8.3,0,8.3,2.1,8.3,7V108C471.6,113.6,471.6,114.8,465.1,114.8"/>
		<path class="st1" d="M498.6,66.8c-3.7,0-5.9,2.5-5.9,6.7v46.6c0,4.3,2.2,6.9,6.1,6.9c3.8,0,6.2-2.6,6.2-6.9V73.6
			C505,69.3,502.7,66.8,498.6,66.8z"/>
		<path class="st1" d="M519.6,27c-3.9,0-6.2,2.4-6.2,6.5v87c0,4.1,2.3,6.5,6.3,6.5c4,0,6.2-2.4,6.2-6.5v-87
			C525.9,29.4,523.6,27,519.6,27z"/>
		<path class="st1" d="M585.7,68.6h-28.4c-16.5,0-23.2,5.4-23.2,18.6v21c0,12.5,9.3,18.8,27.5,18.8h7.6c3.7,0,5.9-2.4,5.9-6.2
			c0-3.8-2.2-6-5.9-6h-10c-11.9,0-11.9-4-11.9-5.4v-4.8h51.6c2.3,0,6.2-0.8,6.2-6.4v-13C605.1,75.2,601.8,68.6,585.7,68.6
			 M547.3,86.6c0-4.3,0-5.9,8-5.9h32.3c2.9,0,3.8,0.4,4,0.7c0.5,0.5,0.5,2,0.5,3.8v7h-44.8V86.6z"/>
		<path class="st1" d="M303.7,68.1H294c-7.2,0-12.3,1.1-15.9,3.3c-3.6-2.3-8.7-3.3-15.9-3.3h-9.7c-16.2,0-22.5,5.3-22.5,18.8v33.7
			c0,3.7,2,5.2,3.7,5.8c1.9,0.7,4,0.7,5.9,0c1.3-0.5,3.6-2,3.6-5.8V86.9c0-4.7,0-6.7,8-6.7h12.4c7.9,0,7.9,2.1,8,6.2v0.5v33.7
			c-0.1,1.5,0.4,2.9,1.2,4.1c0.6,0.8,1.4,1.4,2.3,1.8c0.9,0.3,1.9,0.5,2.9,0.5h0.3c1,0,2-0.2,2.9-0.5c0.9-0.4,1.7-1,2.3-1.7
			c0.9-1.2,1.3-2.6,1.3-4.1V86.9v-0.5c0-4.1,0-6.2,8-6.2H305c8,0,8,2,8,6.7v33.7c0,3.9,2.2,5.3,3.6,5.8c0.9,0.3,1.8,0.5,2.7,0.5h0.2
			c1,0,2-0.2,3-0.5c1.4-0.5,3.7-2,3.7-5.9V86.9C326.1,73.4,319.8,68.1,303.7,68.1"/>
		<path class="st1" d="M195.7,79.3c3,3,5.4,6.5,7,10.4c1.6,3.9,2.4,8.1,2.4,12.3c0,4.2-0.8,8.4-2.4,12.3c-1.6,3.9-4,7.4-7,10.4
			l-67.9,67.9c-6,6-14.2,9.4-22.7,9.4c-8.5,0-16.7-3.4-22.7-9.4l-68-67.9c-3-3-5.3-6.5-7-10.4C5.8,110.4,5,106.2,5,102
			c0-4.2,0.8-8.4,2.4-12.3c1.6-3.9,4-7.4,7-10.4l68-68c6-6,14.2-9.4,22.7-9.4c8.5,0,16.7,3.4,22.7,9.4L195.7,79.3z"/>
		<path class="st2" d="M127.8,64.7l-11.4,11.4c-1,1-1.9,2.3-2.4,3.7c-0.6,1.4-0.9,2.8-0.9,4.3c0,3,1.2,5.9,3.3,8
			c2.1,2.1,5,3.3,8,3.3c3,0,5.9-1.2,8-3.3l7.1-7.1c0,0,2.6,2.5,8.7,8.6l7.1,7.1l-48.7,48.7c-2.2,2.2-4.9,2.4-7,0.3l-41.4-41.3
			c-0.4-0.4-0.8-0.9-1-1.5c-0.2-0.6-0.3-1.1-0.3-1.7c0-0.6,0.1-1.2,0.4-1.7c0.2-0.5,0.6-1,1-1.4l57.1-57.1c1.1-1,2-2.3,2.6-3.7
			c0.6-1.4,0.9-2.9,0.9-4.4c0-1.5-0.3-3-0.8-4.4c-0.6-1.4-1.4-2.7-2.5-3.7c-1.1-1.1-2.3-1.9-3.7-2.5c-1.4-0.6-2.9-0.8-4.4-0.8
			c-1.5,0-3,0.3-4.4,0.9c-1.4,0.6-2.6,1.5-3.7,2.6L34.4,93.9c-3,3.1-4.7,7.3-4.7,11.6c0,4.3,1.8,8.5,4.9,11.5l56.5,56.4
			c3,3.1,7.2,4.8,11.5,4.9c4.3,0,8.5-1.6,11.6-4.7l61.4-61.4c3-3.1,4.7-7.2,4.7-11.6c0-4.3-1.8-8.5-4.9-11.5l-8.7-8.7l-2.7-2.7
			l-13.2-13.2c-3.1-3-7.3-4.7-11.6-4.7C134.9,59.9,130.8,61.6,127.8,64.7"/>
	</g>
</g>
</svg>
